<svg version="1" xmlns="http://www.w3.org/2000/svg" width="853.333" height="853.333" viewBox="0 0 640.000000 640.000000"><path d="M136.5 12.4c-30 5.3-54.9 24.7-69.8 54.2C63 74 59.5 84 58.6 90c-1.5 9.6-2.6 17-3.1 22-.3 3-.7 7.5-1 10-.2 2.5-.7 7.9-.9 12-.5 6.8-.8 11.2-2.1 33-2.7 45.2-2.7 206.8 0 272.5.9 22.6 1.6 37.5 2 41.5.2 2.5.7 9.4 1 15.5.3 6 .8 12.3 1 14 .2 1.6.6 5.6.9 8.7 1.4 13.9 1.8 17.4 2.1 18.8.2.8.7 3.5 1 5.9 1.6 11.1 8.3 27.4 15.7 38.4 2.3 3.4 4.1 6.8 4.1 7.6 0 2.2 12.1 13.9 19.1 18.5 14.6 9.6 30.6 14 51.6 14 20.3.1 28-1.3 47.3-8.8 22.5-8.8 71.6-33.2 101.2-50.3 2.2-1.2 4.7-2.6 5.5-3 .8-.4 6.9-3.8 13.4-7.5 6.6-3.7 12.2-6.8 12.6-6.8.3 0 1.2-.6 1.8-1.2.7-.7 1.6-1.3 2-1.3.4 0 1.8-.8 3.2-1.6 1.4-.9 15.3-9.2 31-18.4s30.1-17.7 32-19c1.9-1.2 17-10.5 33.5-20.7 48.2-29.7 104.2-65.9 136-88.1 6.1-4.2 11.9-8.3 13-8.9 3.4-2.2 11.9-11 15.3-15.9 7.2-10.5 12.9-24.9 15.5-38.7 1.7-9.1 1.7-29 0-30-.7-.4-1.9-3.9-2.7-7.7-3.4-16-9.9-28.6-20-38.7-4.1-4.1-21-15.6-43.6-29.6-8-5-17.9-11.2-22-13.8-9.5-6-94.5-57.2-114.5-68.9-48.7-28.6-73.5-43.1-77-45-2.2-1.2-8.5-4.8-14-8-12.1-7-47.4-27-53-29.9-2.2-1.2-4.1-2.4-4.3-2.9-.2-.4-.7-.7-1.2-.7-.4 0-4.3-2-8.6-4.3-4.4-2.4-10.8-6-14.4-7.9-3.6-1.9-9.5-5.2-13.3-7.2-20.8-11.2-45.3-22.8-51.2-24-1.6-.3-4.1-.9-5.5-1.2-5.3-1.2-24.8-1.2-31.5 0z"/></svg>